# xmcd
#
# Track frame offsets:
# 150
# 16648
# 29541
# 54831
# 85772
# 102044
# 117089
# 134286
#
# Disc length: 2117 seconds
#
#
# Revision: 0
# Processed by: cddbd v1.5.2PL0 Copyright (c) Steve Scherf et al.
# Submitted via: Nero 7, 11, 10, 0 
#
DISCID=52084308
DTITLE=Kid Dynamite - I'm The Man
DYEAR=2000
DGENRE=Blues
TTITLE0=Someone Else Is Steppin' In
TTITLE1=You Ain't Satisfied
TTITLE2=Please, Leave
TTITLE3=I'm Kid
TTITLE4=Members Only
TTITLE5=My Baby Snores
TTITLE6=Step Out On The Town
TTITLE7=Strokin'
EXTD=
EXTT0=Someone Else Is Steppin' In
EXTT1=You Ain't Satisfied
EXTT2=Please, Leave
EXTT3=I'm Kid
EXTT4=Members Only
EXTT5=My Baby Snores
EXTT6=Step Out On The Town
EXTT7=Strokin'
PLAYORDER=
